<svg xmlns="http://www.w3.org/2000/svg" width="23" height="20" viewBox="0 0 23 20"><path fill="#d7d7d7" d="M20.56 5.78h-3.07a.93.93 0 0 0-.08-.18L14.4.78a.9.9 0 0 0-1.54.95l2.53 4.05H7.65l2.53-4.05A.9.9 0 0 0 9.4.35a.9.9 0 0 0-.77.43l-3 4.82a.93.93 0 0 0-.09.18H2.48c-1 0-1.8.8-1.8 1.8v1.2c0 .86.6 1.58 1.39 1.77l2.3 7.79c.21.75.9 1.3 1.73 1.3h10.84c.83 0 1.52-.55 1.74-1.3l2.3-7.8c.8-.18 1.39-.9 1.39-1.75v-1.2c0-1-.81-1.81-1.81-1.81zM2.48 7.58h18.08v1.2H2.48zm14.46 10.25H6.1L3.97 10.6h15.1z"/></svg>