<svg xmlns="http://www.w3.org/2000/svg" xmlns:xlink="http://www.w3.org/1999/xlink" width="18" height="15" viewBox="0 0 18 15"><defs><path id="a" d="M1 0h16c.55 0 1 .67 1 1.5S17.55 3 17 3H1c-.55 0-1-.67-1-1.5S.45 0 1 0z"/><path id="b" d="M1 6h16c.55 0 1 .67 1 1.5S17.55 9 17 9H1c-.55 0-1-.67-1-1.5S.45 6 1 6z"/><path id="c" d="M1 12h16c.55 0 1 .67 1 1.5s-.45 1.5-1 1.5H1c-.55 0-1-.67-1-1.5S.45 12 1 12z"/></defs><desc>Generated with Avocode.</desc><g><use fill="#0023ff" xlink:href="#a"/></g><g><use fill="#0023ff" xlink:href="#b"/></g><g><use fill="#0023ff" xlink:href="#c"/></g></svg>